<svg width="64" height="64" viewBox="0 0 64 64" fill="none" xmlns="http://www.w3.org/2000/svg">
<rect x="0.5" y="0.5" width="63" height="63" rx="19.5" fill="white"/>
<rect x="0.5" y="0.5" width="63" height="63" rx="19.5" stroke="#E2E8F0"/>
<path d="M21.756 41C21.372 41 21.048 40.928 20.784 40.784C20.52 40.616 20.316 40.436 20.172 40.244C20.052 40.028 19.956 39.848 19.884 39.704C19.836 39.56 19.812 39.488 19.812 39.488C19.716 38.456 19.632 37.268 19.56 35.924C19.488 34.556 19.44 33.128 19.416 31.64C19.416 30.128 19.428 28.616 19.452 27.104C19.476 25.592 19.524 24.128 19.596 22.712C19.668 21.296 19.752 20 19.848 18.824C19.848 18.824 19.86 18.764 19.884 18.644C19.932 18.5 20.016 18.344 20.136 18.176C20.256 18.008 20.424 17.864 20.64 17.744C20.88 17.624 21.192 17.588 21.576 17.636C22.008 17.66 22.332 17.756 22.548 17.924C22.788 18.092 22.956 18.284 23.052 18.5C23.172 18.716 23.244 18.908 23.268 19.076C23.316 19.244 23.34 19.328 23.34 19.328C23.268 20.264 23.208 21.38 23.16 22.676C23.136 23.972 23.112 25.364 23.088 26.852C23.064 28.316 23.052 29.804 23.052 31.316C23.052 32.828 23.076 34.304 23.124 35.744C23.172 37.16 23.232 38.456 23.304 39.632C23.304 39.632 23.28 39.704 23.232 39.848C23.208 39.968 23.148 40.124 23.052 40.316C22.98 40.484 22.836 40.64 22.62 40.784C22.404 40.928 22.116 41 21.756 41ZM26.688 26.636C24.792 26.612 22.992 26.588 21.288 26.564C19.584 26.516 18.072 26.48 16.752 26.456C16.752 26.456 16.656 26.444 16.464 26.42C16.296 26.396 16.092 26.336 15.852 26.24C15.612 26.144 15.396 26.012 15.204 25.844C15.012 25.652 14.904 25.388 14.88 25.052C14.856 24.764 14.892 24.536 14.988 24.368C15.084 24.2 15.216 24.08 15.384 24.008C15.552 23.912 15.684 23.852 15.78 23.828C15.9 23.78 15.96 23.756 15.96 23.756C16.152 23.732 16.512 23.708 17.04 23.684C17.568 23.66 18.204 23.648 18.948 23.648C19.692 23.624 20.484 23.612 21.324 23.612C22.188 23.588 23.052 23.576 23.916 23.576C24.78 23.576 25.596 23.576 26.364 23.576C26.364 23.576 26.424 23.588 26.544 23.612C26.688 23.636 26.856 23.684 27.048 23.756C27.24 23.804 27.432 23.888 27.624 24.008C27.816 24.128 27.972 24.284 28.092 24.476C28.212 24.668 28.272 24.92 28.272 25.232C28.248 25.592 28.152 25.88 27.984 26.096C27.816 26.288 27.636 26.42 27.444 26.492C27.252 26.564 27.072 26.612 26.904 26.636C26.76 26.636 26.688 26.636 26.688 26.636ZM40.0052 40.928C38.5892 40.928 37.3532 40.7 36.2972 40.244C35.2652 39.764 34.4132 39.128 33.7412 38.336C33.0692 37.52 32.5652 36.584 32.2292 35.528C31.9172 34.472 31.7612 33.344 31.7612 32.144C31.7612 30.824 31.9652 29.6 32.3732 28.472C32.8052 27.344 33.4052 26.372 34.1732 25.556C34.9412 24.74 35.8652 24.116 36.9452 23.684C38.0252 23.228 39.2132 23 40.5092 23C41.7332 23.024 42.8612 23.228 43.8932 23.612C44.9492 23.996 45.8612 24.572 46.6292 25.34C47.4212 26.084 48.0332 27.02 48.4652 28.148C48.8972 29.276 49.1132 30.596 49.1132 32.108C49.1372 33.308 48.8972 34.448 48.3932 35.528C47.9132 36.584 47.2532 37.52 46.4132 38.336C45.5732 39.128 44.6012 39.764 43.4972 40.244C42.3932 40.7 41.2292 40.928 40.0052 40.928ZM32.3372 48.668C31.9292 48.668 31.5932 48.596 31.3292 48.452C31.0892 48.308 30.8972 48.128 30.7532 47.912C30.6092 47.696 30.5132 47.516 30.4652 47.372C30.4172 47.228 30.3932 47.156 30.3932 47.156C30.2972 46.124 30.2132 44.852 30.1412 43.34C30.0692 41.852 30.0212 40.256 29.9972 38.552C29.9972 36.848 29.9972 35.132 29.9972 33.404C30.0212 31.676 30.0692 30.044 30.1412 28.508C30.2132 26.948 30.2972 25.592 30.3932 24.44C30.3932 24.44 30.4052 24.38 30.4292 24.26C30.4772 24.116 30.5492 23.96 30.6452 23.792C30.7652 23.6 30.9452 23.444 31.1852 23.324C31.4252 23.204 31.7372 23.156 32.1212 23.18C32.5292 23.228 32.8412 23.336 33.0572 23.504C33.2972 23.672 33.4772 23.864 33.5972 24.08C33.7172 24.296 33.7892 24.488 33.8132 24.656C33.8612 24.824 33.8852 24.908 33.8852 24.908C33.8132 25.868 33.7532 27.068 33.7052 28.508C33.6572 29.924 33.6212 31.472 33.5972 33.152C33.5972 34.832 33.6092 36.536 33.6332 38.264C33.6572 39.968 33.6812 41.6 33.7052 43.16C33.7532 44.744 33.8132 46.124 33.8852 47.3C33.8852 47.3 33.8732 47.372 33.8492 47.516C33.8252 47.66 33.7652 47.816 33.6692 47.984C33.5732 48.152 33.4172 48.308 33.2012 48.452C32.9852 48.596 32.6972 48.668 32.3372 48.668ZM39.7172 37.688C40.4852 37.688 41.2172 37.52 41.9132 37.184C42.6092 36.824 43.2212 36.356 43.7492 35.78C44.2772 35.204 44.6852 34.544 44.9732 33.8C45.2852 33.032 45.4412 32.252 45.4412 31.46C45.4412 30.116 45.2132 29.036 44.7572 28.22C44.3012 27.38 43.6892 26.768 42.9212 26.384C42.1772 26 41.3612 25.808 40.4732 25.808C39.7292 25.808 39.0212 25.988 38.3492 26.348C37.7012 26.708 37.1132 27.2 36.5852 27.824C36.0812 28.448 35.6732 29.156 35.3612 29.948C35.0732 30.716 34.9292 31.508 34.9292 32.324C34.9292 33.332 35.1212 34.244 35.5052 35.06C35.9132 35.876 36.4772 36.524 37.1972 37.004C37.9172 37.46 38.7572 37.688 39.7172 37.688Z" fill="#0F172A"/>
<circle cx="52" cy="52" r="3" fill="#60A5FA"/>
</svg>
