<svg width="64" height="64" viewBox="0 0 64 64" fill="none" xmlns="http://www.w3.org/2000/svg">
<rect x="0.5" y="0.5" width="63" height="63" rx="19.5" fill="#059669"/>
<rect x="0.5" y="0.5" width="63" height="63" rx="19.5" stroke="#059669"/>
<path d="M19.9961 41C19.3374 41 18.7928 40.8733 18.3621 40.62C17.9568 40.3667 17.6401 40.0753 17.4121 39.746C17.1841 39.3913 17.0194 39.0873 16.9181 38.834C16.8421 38.5807 16.8041 38.454 16.8041 38.454C16.7028 37.3647 16.6141 36.1613 16.5381 34.844C16.4621 33.5267 16.4114 32.1587 16.3861 30.74C16.3861 29.296 16.3988 27.852 16.4241 26.408C16.4494 24.9387 16.5001 23.5073 16.5761 22.114C16.6521 20.7207 16.7408 19.4033 16.8421 18.162C16.8421 18.162 16.8674 18.0607 16.9181 17.858C16.9941 17.6553 17.1208 17.4273 17.2981 17.174C17.5008 16.8953 17.7794 16.6673 18.1341 16.49C18.5141 16.3127 19.0081 16.2493 19.6161 16.3C20.2748 16.3507 20.7941 16.5153 21.1741 16.794C21.5541 17.0727 21.8328 17.3893 22.0101 17.744C22.1874 18.0733 22.3014 18.3647 22.3521 18.618C22.4281 18.8713 22.4661 18.998 22.4661 18.998C22.4408 19.9607 22.4028 21.0753 22.3521 22.342C22.3014 23.5833 22.2634 24.9007 22.2381 26.294C22.2128 27.6873 22.2001 29.1187 22.2001 30.588C22.2254 32.032 22.2508 33.4633 22.2761 34.882C22.3014 36.2753 22.3521 37.5927 22.4281 38.834C22.4281 38.834 22.4028 38.948 22.3521 39.176C22.3268 39.3787 22.2381 39.632 22.0861 39.936C21.9341 40.2147 21.6934 40.468 21.3641 40.696C21.0348 40.8987 20.5788 41 19.9961 41ZM25.3161 27.32C23.3148 27.32 21.4274 27.2947 19.6541 27.244C17.8808 27.168 16.2848 27.1173 14.8661 27.092C14.8661 27.092 14.7268 27.0793 14.4481 27.054C14.1694 27.0033 13.8274 26.9147 13.4221 26.788C13.0421 26.636 12.7001 26.408 12.3961 26.104C12.0921 25.7747 11.9148 25.3567 11.8641 24.85C11.8134 24.3687 11.8768 23.9887 12.0541 23.71C12.2314 23.406 12.4468 23.1907 12.7001 23.064C12.9788 22.912 13.2194 22.8107 13.4221 22.76C13.6501 22.684 13.7641 22.646 13.7641 22.646C13.9668 22.6207 14.3468 22.5953 14.9041 22.57C15.4614 22.5447 16.1328 22.5193 16.9181 22.494C17.7034 22.4687 18.5394 22.456 19.4261 22.456C20.3381 22.4307 21.2501 22.418 22.1621 22.418C23.0741 22.3927 23.9354 22.38 24.7461 22.38C24.7461 22.38 24.8601 22.3927 25.0881 22.418C25.3161 22.4433 25.5821 22.5067 25.8861 22.608C26.2154 22.684 26.5321 22.8233 26.8361 23.026C27.1654 23.2287 27.4314 23.4947 27.6341 23.824C27.8621 24.128 27.9634 24.5333 27.9381 25.04C27.9381 25.648 27.7988 26.1293 27.5201 26.484C27.2414 26.8133 26.9248 27.0287 26.5701 27.13C26.2408 27.2313 25.9494 27.2947 25.6961 27.32C25.4428 27.32 25.3161 27.32 25.3161 27.32ZM41.3055 41C39.5322 41 38.0502 40.7467 36.8595 40.24C35.6688 39.7333 34.7188 39.0493 34.0095 38.188C33.3002 37.3013 32.7935 36.3007 32.4895 35.186C32.1855 34.046 32.0335 32.8427 32.0335 31.576C32.0335 30.0307 32.2362 28.6627 32.6415 27.472C33.0468 26.2813 33.6548 25.2807 34.4655 24.47C35.2762 23.6593 36.2642 23.0513 37.4295 22.646C38.6202 22.2153 39.9755 22.0127 41.4955 22.038C42.8635 22.038 44.1302 22.266 45.2955 22.722C46.4608 23.1527 47.4742 23.786 48.3355 24.622C49.2222 25.4327 49.9062 26.4333 50.3875 27.624C50.8942 28.8147 51.1475 30.1827 51.1475 31.728C51.1728 32.9947 50.9195 34.1853 50.3875 35.3C49.8808 36.4147 49.1715 37.4027 48.2595 38.264C47.3475 39.1 46.2962 39.7713 45.1055 40.278C43.9148 40.7593 42.6482 41 41.3055 41ZM33.2495 49.132C32.6162 49.132 32.0842 49.0053 31.6535 48.752C31.2482 48.4987 30.9315 48.1947 30.7035 47.84C30.4755 47.5107 30.3108 47.2193 30.2095 46.966C30.1082 46.7127 30.0575 46.586 30.0575 46.586C29.9562 45.4967 29.8675 44.2047 29.7915 42.71C29.7155 41.2407 29.6648 39.6827 29.6395 38.036C29.6142 36.3893 29.6015 34.73 29.6015 33.058C29.6268 31.3607 29.6775 29.7393 29.7535 28.194C29.8295 26.6487 29.9182 25.268 30.0195 24.052C30.0195 24.052 30.0448 23.9507 30.0955 23.748C30.1462 23.52 30.2728 23.2793 30.4755 23.026C30.6782 22.7473 30.9568 22.5193 31.3115 22.342C31.6662 22.1647 32.1602 22.1013 32.7935 22.152C33.4522 22.2027 33.9715 22.3673 34.3515 22.646C34.7315 22.9247 35.0102 23.2413 35.1875 23.596C35.3648 23.9253 35.4788 24.2167 35.5295 24.47C35.6055 24.698 35.6435 24.812 35.6435 24.812C35.5928 25.8 35.5548 27.0033 35.5295 28.422C35.5042 29.8153 35.4788 31.3227 35.4535 32.944C35.4535 34.5653 35.4662 36.2247 35.4915 37.922C35.5168 39.594 35.5422 41.2027 35.5675 42.748C35.6182 44.3187 35.6815 45.7247 35.7575 46.966C35.7575 46.966 35.7322 47.0673 35.6815 47.27C35.6308 47.498 35.5295 47.7513 35.3775 48.03C35.2255 48.334 34.9848 48.5873 34.6555 48.79C34.3262 49.018 33.8575 49.132 33.2495 49.132ZM40.6215 35.756C41.2295 35.756 41.7995 35.6167 42.3315 35.338C42.8888 35.034 43.3702 34.6413 43.7755 34.16C44.1808 33.6533 44.4975 33.096 44.7255 32.488C44.9788 31.88 45.1055 31.2593 45.1055 30.626C45.1055 29.6127 44.9155 28.8147 44.5355 28.232C44.1555 27.624 43.6868 27.1933 43.1295 26.94C42.5722 26.6613 42.0148 26.522 41.4575 26.522C40.9002 26.522 40.3555 26.674 39.8235 26.978C39.2915 27.2567 38.8102 27.6367 38.3795 28.118C37.9742 28.5993 37.6448 29.144 37.3915 29.752C37.1382 30.36 37.0115 30.9933 37.0115 31.652C37.0115 32.412 37.1508 33.1087 37.4295 33.742C37.7335 34.35 38.1515 34.844 38.6835 35.224C39.2408 35.5787 39.8868 35.756 40.6215 35.756Z" fill="white"/>
</svg>
