<svg width="64" height="64" viewBox="0 0 64 64" fill="none" xmlns="http://www.w3.org/2000/svg">
<rect x="0.5" y="0.5" width="63" height="63" rx="19.5" fill="white"/>
<rect x="0.5" y="0.5" width="63" height="63" rx="19.5" stroke="#E2E8F0"/>
<path d="M19.9961 42C19.3374 42 18.7928 41.8733 18.3621 41.62C17.9568 41.3667 17.6401 41.0753 17.4121 40.746C17.1841 40.3913 17.0194 40.0873 16.9181 39.834C16.8421 39.5807 16.8041 39.454 16.8041 39.454C16.7028 38.3647 16.6141 37.1613 16.5381 35.844C16.4621 34.5267 16.4114 33.1587 16.3861 31.74C16.3861 30.296 16.3988 28.852 16.4241 27.408C16.4494 25.9387 16.5001 24.5073 16.5761 23.114C16.6521 21.7207 16.7408 20.4033 16.8421 19.162C16.8421 19.162 16.8674 19.0607 16.9181 18.858C16.9941 18.6553 17.1208 18.4273 17.2981 18.174C17.5008 17.8953 17.7794 17.6673 18.1341 17.49C18.5141 17.3127 19.0081 17.2493 19.6161 17.3C20.2748 17.3507 20.7941 17.5153 21.1741 17.794C21.5541 18.0727 21.8328 18.3893 22.0101 18.744C22.1874 19.0733 22.3014 19.3647 22.3521 19.618C22.4281 19.8713 22.4661 19.998 22.4661 19.998C22.4408 20.9607 22.4028 22.0753 22.3521 23.342C22.3014 24.5833 22.2634 25.9007 22.2381 27.294C22.2128 28.6873 22.2001 30.1187 22.2001 31.588C22.2254 33.032 22.2508 34.4633 22.2761 35.882C22.3014 37.2753 22.3521 38.5927 22.4281 39.834C22.4281 39.834 22.4028 39.948 22.3521 40.176C22.3268 40.3787 22.2381 40.632 22.0861 40.936C21.9341 41.2147 21.6934 41.468 21.3641 41.696C21.0348 41.8987 20.5788 42 19.9961 42ZM25.3161 28.32C23.3148 28.32 21.4274 28.2947 19.6541 28.244C17.8808 28.168 16.2848 28.1173 14.8661 28.092C14.8661 28.092 14.7268 28.0793 14.4481 28.054C14.1694 28.0033 13.8274 27.9147 13.4221 27.788C13.0421 27.636 12.7001 27.408 12.3961 27.104C12.0921 26.7747 11.9148 26.3567 11.8641 25.85C11.8134 25.3687 11.8768 24.9887 12.0541 24.71C12.2314 24.406 12.4468 24.1907 12.7001 24.064C12.9788 23.912 13.2194 23.8107 13.4221 23.76C13.6501 23.684 13.7641 23.646 13.7641 23.646C13.9668 23.6207 14.3468 23.5953 14.9041 23.57C15.4614 23.5447 16.1328 23.5193 16.9181 23.494C17.7034 23.4687 18.5394 23.456 19.4261 23.456C20.3381 23.4307 21.2501 23.418 22.1621 23.418C23.0741 23.3927 23.9354 23.38 24.7461 23.38C24.7461 23.38 24.8601 23.3927 25.0881 23.418C25.3161 23.4433 25.5821 23.5067 25.8861 23.608C26.2154 23.684 26.5321 23.8233 26.8361 24.026C27.1654 24.2287 27.4314 24.4947 27.6341 24.824C27.8621 25.128 27.9634 25.5333 27.9381 26.04C27.9381 26.648 27.7988 27.1293 27.5201 27.484C27.2414 27.8133 26.9248 28.0287 26.5701 28.13C26.2408 28.2313 25.9494 28.2947 25.6961 28.32C25.4428 28.32 25.3161 28.32 25.3161 28.32ZM41.3055 42C39.5322 42 38.0502 41.7467 36.8595 41.24C35.6688 40.7333 34.7188 40.0493 34.0095 39.188C33.3002 38.3013 32.7935 37.3007 32.4895 36.186C32.1855 35.046 32.0335 33.8427 32.0335 32.576C32.0335 31.0307 32.2362 29.6627 32.6415 28.472C33.0468 27.2813 33.6548 26.2807 34.4655 25.47C35.2762 24.6593 36.2642 24.0513 37.4295 23.646C38.6202 23.2153 39.9755 23.0127 41.4955 23.038C42.8635 23.038 44.1302 23.266 45.2955 23.722C46.4608 24.1527 47.4742 24.786 48.3355 25.622C49.2222 26.4327 49.9062 27.4333 50.3875 28.624C50.8942 29.8147 51.1475 31.1827 51.1475 32.728C51.1728 33.9947 50.9195 35.1853 50.3875 36.3C49.8808 37.4147 49.1715 38.4027 48.2595 39.264C47.3475 40.1 46.2962 40.7713 45.1055 41.278C43.9148 41.7593 42.6482 42 41.3055 42ZM33.2495 50.132C32.6162 50.132 32.0842 50.0053 31.6535 49.752C31.2482 49.4987 30.9315 49.1947 30.7035 48.84C30.4755 48.5107 30.3108 48.2193 30.2095 47.966C30.1082 47.7127 30.0575 47.586 30.0575 47.586C29.9562 46.4967 29.8675 45.2047 29.7915 43.71C29.7155 42.2407 29.6648 40.6827 29.6395 39.036C29.6142 37.3893 29.6015 35.73 29.6015 34.058C29.6268 32.3607 29.6775 30.7393 29.7535 29.194C29.8295 27.6487 29.9182 26.268 30.0195 25.052C30.0195 25.052 30.0448 24.9507 30.0955 24.748C30.1462 24.52 30.2728 24.2793 30.4755 24.026C30.6782 23.7473 30.9568 23.5193 31.3115 23.342C31.6662 23.1647 32.1602 23.1013 32.7935 23.152C33.4522 23.2027 33.9715 23.3673 34.3515 23.646C34.7315 23.9247 35.0102 24.2413 35.1875 24.596C35.3648 24.9253 35.4788 25.2167 35.5295 25.47C35.6055 25.698 35.6435 25.812 35.6435 25.812C35.5928 26.8 35.5548 28.0033 35.5295 29.422C35.5042 30.8153 35.4788 32.3227 35.4535 33.944C35.4535 35.5653 35.4662 37.2247 35.4915 38.922C35.5168 40.594 35.5422 42.2027 35.5675 43.748C35.6182 45.3187 35.6815 46.7247 35.7575 47.966C35.7575 47.966 35.7322 48.0673 35.6815 48.27C35.6308 48.498 35.5295 48.7513 35.3775 49.03C35.2255 49.334 34.9848 49.5873 34.6555 49.79C34.3262 50.018 33.8575 50.132 33.2495 50.132ZM40.6215 36.756C41.2295 36.756 41.7995 36.6167 42.3315 36.338C42.8888 36.034 43.3702 35.6413 43.7755 35.16C44.1808 34.6533 44.4975 34.096 44.7255 33.488C44.9788 32.88 45.1055 32.2593 45.1055 31.626C45.1055 30.6127 44.9155 29.8147 44.5355 29.232C44.1555 28.624 43.6868 28.1933 43.1295 27.94C42.5722 27.6613 42.0148 27.522 41.4575 27.522C40.9002 27.522 40.3555 27.674 39.8235 27.978C39.2915 28.2567 38.8102 28.6367 38.3795 29.118C37.9742 29.5993 37.6448 30.144 37.3915 30.752C37.1382 31.36 37.0115 31.9933 37.0115 32.652C37.0115 33.412 37.1508 34.1087 37.4295 34.742C37.7335 35.35 38.1515 35.844 38.6835 36.224C39.2408 36.5787 39.8868 36.756 40.6215 36.756Z" fill="#059669"/>
</svg>
